<svg xmlns="http://www.w3.org/2000/svg" width="1024" height="1024" viewBox="0 0 1024 1024" role="img">
  <path d="M 293 471.500 L 293 726.076 425.250 725.747 C 565.633 725.399, 560.342 725.563, 581.500 720.889 C 605.659 715.553, 631.923 704.634, 653.969 690.763 C 682.318 672.926, 711.697 643.324, 729.780 614.378 C 747.278 586.367, 761.026 547.573, 764.554 516.250 L 765.258 510 736.629 510 L 708 510 708 513.017 C 708 518.272, 703.935 535.051, 699.771 546.984 C 683.959 592.301, 654.949 627.736, 614.884 650.671 C 603.867 656.978, 584.037 664.940, 571.877 667.939 C 552.164 672.801, 548.081 672.960, 442.250 672.980 L 343 673 343 470 L 343 267 436.250 267.009 C 531.366 267.017, 544.691 267.436, 561.428 270.939 C 609.681 281.039, 653.405 311.766, 679.711 354.060 C 692.386 374.440, 703.629 403.693, 707.455 426.250 L 708.091 430 736.183 430 L 764.275 430 763.605 424.250 C 760.075 393.970, 743.938 352.829, 723.108 321.002 C 705.554 294.179, 678.374 267.919, 650.403 250.758 C 629.127 237.704, 604.858 227.768, 581.500 222.549 C 558.950 217.511, 564.462 217.695, 424.250 217.297 L 293 216.923 293 471.500" fill="#f97316" fill-rule="evenodd"/>
  <path d="M 366 470 L 366 650.088 457.250 649.716 C 557.628 649.307, 553.842 649.526, 575.500 642.887 C 624.102 627.990, 662.789 588.915, 679.842 537.500 C 683.143 527.550, 685.794 516.421, 685.151 515.217 C 685.068 515.062, 672.288 514.928, 656.750 514.920 L 628.500 514.905 622.430 526.898 C 615.278 541.030, 607.770 551.187, 596.949 561.366 C 550.753 604.824, 478.482 602.937, 432.964 557.084 C 415.249 539.238, 402.791 515.028, 398.425 489.961 C 395.980 475.922, 396.882 453.906, 400.452 440.500 C 412.034 397.001, 445.959 362.880, 488.423 352.020 C 521.244 343.626, 553.803 349.384, 582.889 368.727 C 600.877 380.690, 619.827 403.723, 625.816 420.902 L 626.896 424 655.967 424 L 685.038 424 684.415 421.250 C 679.841 401.078, 672.064 382.351, 661.261 365.500 C 637.130 327.859, 601.156 302.917, 556.500 292.864 C 546.601 290.635, 545.590 290.609, 456.250 290.262 L 366 289.911 366 470" fill="#111827" fill-rule="evenodd"/>
  <path d="M 501.500 397.413 C 487.848 400.808, 475.632 407.644, 465.900 417.336 C 436.445 446.667, 435.554 492.100, 463.843 522.172 C 475.388 534.444, 486.342 540.982, 501.244 544.495 C 509.519 546.446, 524.364 546.392, 533.303 544.379 C 561.262 538.080, 583.979 513.756, 589.039 484.697 L 590.205 478 694.103 478 C 756.945 478, 798 478.365, 798 478.923 C 798 480.759, 803.336 486.131, 807.034 488.017 C 821.676 495.487, 837.361 485.882, 837.214 469.537 C 837.034 449.526, 812.141 441.491, 800.508 457.689 L 797.500 461.878 693.920 461.939 L 590.341 462 588.604 453.917 C 587.494 448.755, 584.998 442.162, 581.694 435.667 C 577.413 427.252, 575.036 424.012, 567.901 416.863 C 560.776 409.725, 557.650 407.422, 549.890 403.591 C 544.726 401.042, 537.350 398.299, 533.500 397.495 C 525.081 395.739, 508.406 395.696, 501.500 397.413 M 503.500 415.413 C 494.422 417.671, 483.996 423.759, 477 430.888 C 465.586 442.519, 460.630 454.842, 460.668 471.500 C 460.687 479.775, 461.153 482.794, 463.371 489 C 471.045 510.476, 488.758 524.955, 511.097 528.013 C 525.516 529.988, 539.281 525.959, 551.724 516.124 C 560.586 509.119, 569.469 494.751, 572.071 483.212 C 573.449 477.104, 573.377 465.143, 571.920 458.076 C 567.816 438.167, 551.105 420.648, 531.297 415.489 C 524.490 413.716, 510.479 413.678, 503.500 415.413" fill="#374151" fill-rule="evenodd"/>
</svg>
