<svg clip-rule="evenodd" fill-rule="evenodd" height="2.833in" image-rendering="optimizeQuality"
     shape-rendering="geometricPrecision" text-rendering="geometricPrecision" viewBox="0 0 2833 2833" width="2.833in"
     xmlns="http://www.w3.org/2000/svg">
    <g id="Layer_x0020_1">
        <circle cx="1417" cy="1417" fill="#faa940" r="1417"/>
        <g fill="#fefefe">
            <path d="m1415 1635c-23 0-46-1-69-3-134-10-270-51-404-120-227-118-368-276-374-283s-6-19 0-26c4-4 91-102 237-201 136-93 350-203 601-206 288-4 562 132 814 405 7 8 7 19 0 27-25 27-50 53-75 77-41-29-90-46-143-46h-8c-136 0-247 111-247 247v65c-108 42-219 64-332 64zm-21-97c-178 0-323-145-323-323s145-323 323-323c179 0 324 145 324 323s-145 323-324 323zm0-109c-117 0-213-96-213-214s96-213 213-213c118 0 214 95 214 213s-96 214-214 214zm0-387c-95 0-173 78-173 173 0 96 78 174 173 174 96 0 174-78 174-174 0-95-78-173-174-173zm0-110c-156 0-283 127-283 283s127 283 283 283c157 0 284-127 284-283s-127-283-284-283z"/>
            <path d="m2207 2038h-418c-35 0-64-29-64-64v-309c0-35 29-63 64-63h418c34 0 63 28 63 63v309c0 35-29 64-63 64zm-229-175c-41-10-72-46-72-90 0-51 41-92 92-92 50 0 91 41 91 92 0 44-30 80-71 90v75c0 11-9 20-20 20s-20-9-20-20zm189 78c-11 0-20-8-20-20v-203c0-11 9-20 20-20s20 9 20 20v203c0 12-9 20-20 20zm-339 0c-11 0-20-8-20-20v-203c0-11 9-20 20-20s20 9 20 20v203c0 12-9 20-20 20zm170-220c-29 0-52 23-52 52s23 52 52 52c28 0 51-23 51-52s-23-52-51-52z"/>
            <path d="m2168 1662h-341c-22 0-40-18-40-40v-116c0-114 93-207 207-207h8c114 0 206 93 206 207v116c0 22-18 40-40 40zm-301-80h261v-76c0-70-57-127-126-127h-8c-70 0-127 57-127 127z"/>
        </g>
    </g>
</svg>
